<?xml version="1.0" encoding="UTF-8" standalone="no"?>
<svg width="104px" height="28px" viewBox="0 0 104 28" version="1.1" xmlns="http://www.w3.org/2000/svg" xmlns:xlink="http://www.w3.org/1999/xlink" xmlns:sketch="http://www.bohemiancoding.com/sketch/ns">
    <!-- Generator: Sketch 3.3 (11970) - http://www.bohemiancoding.com/sketch -->
    <title>Verb Logo</title>
    <desc>Created with Sketch.</desc>
    <defs>
        <path id="path-1" d="M0.00330508475,0.0353568627 L103.969703,0.0353568627 L103.969703,27.9967059 L0.00330508475,27.9967059"></path>
    </defs>
    <g id="Welcome" stroke="none" stroke-width="1" fill="none" fill-rule="evenodd" sketch:type="MSPage">
        <g id="Desktop-Active" sketch:type="MSArtboardGroup" transform="translate(-48.000000, -77.000000)">
            <g id="sidebar" sketch:type="MSLayerGroup">
                <g id="Verb-Logo" transform="translate(48.000000, 77.000000)">
                    <g id="Group-3">
                        <mask id="mask-2" sketch:name="Clip 2" fill="white">
                            <use xlink:href="#path-1"></use>
                        </mask>
                        <g id="Clip-2"></g>
                        <path d="M0,5.15040784 L4.42291949,5.15040784 L11.2835042,22.5869412 L18.1136271,5.15040784 L22.4371737,5.15040784 L12.9744407,28 L9.46416525,28 L0,5.15040784" id="Fill-1" fill="#FFFFFF" sketch:type="MSShapeGroup" mask="url(#mask-2)"></path>
                    </g>
                    <path d="M29.5921864,5.15040784 L46.4675085,5.15040784 L46.4675085,8.71535686 L33.5916695,8.71535686 L33.5916695,14.6142431 L45.0051186,14.6142431 L45.0051186,18.178698 L33.5916695,18.178698 L33.5916695,24.2720471 L46.6296229,24.2720471 L46.6296229,27.8378196 L29.5921864,27.8378196 L29.5921864,5.15040784" id="Fill-4" fill="#FFFFFF" sketch:type="MSShapeGroup"></path>
                    <path d="M69.9482627,16.3965804 L69.9482627,8.78036078 L64.1247034,8.78036078 C61.1661017,8.78036078 59.4094492,10.1083843 59.4094492,12.539498 L59.4094492,12.6054353 C59.4094492,14.9053333 61.2316525,16.3965804 64.0927542,16.3965804 L69.9482627,16.3965804 L69.9482627,16.3965804 Z M73.9463136,27.8378196 L69.9482627,27.8378196 L69.9482627,19.9294667 L64.9383051,19.9294667 L59.3461017,27.8378196 L54.6284237,27.8378196 L60.775,19.2490667 C57.5888983,18.3409882 55.3447458,16.1048314 55.3447458,12.3784157 L55.3447458,12.3129725 C55.3447458,10.3360627 56.0283475,8.65024314 57.2319492,7.41890196 C58.6944492,5.99309804 60.9380508,5.15040784 63.8002542,5.15040784 L73.9463136,5.15040784 L73.9463136,27.8378196 L73.9463136,27.8378196 Z" id="Fill-5" fill="#FFFFFF" sketch:type="MSShapeGroup"></path>
                    <path d="M91.9612288,24.3050431 C94.6917797,24.3050431 96.3498305,23.2345098 96.3498305,21.1934196 L96.3498305,21.1279765 C96.3498305,19.2163451 94.8217797,18.0819059 91.6676271,18.0819059 L85.326822,18.0819059 L85.326822,24.3050431 L91.9612288,24.3050431 L91.9612288,24.3050431 Z M90.7901271,14.7116392 C93.358178,14.7116392 95.0828814,13.7067137 95.0828814,11.6321882 L95.0828814,11.5681725 C95.0828814,9.78457255 93.6523305,8.68296471 91.0820763,8.68296471 L85.326822,8.68296471 L85.326822,14.7116392 L90.7901271,14.7116392 L90.7901271,14.7116392 Z M81.3915678,5.15040784 L91.603178,5.15040784 C94.2037288,5.15040784 96.2517797,5.8631451 97.5523305,7.1594902 C98.5620339,8.16441569 99.0814831,9.39614118 99.0814831,10.9191216 L99.0814831,10.9842353 C99.0814831,13.7067137 97.5209322,15.1654588 95.8298305,16.0408157 C98.4964831,16.9475216 100.350085,18.4712706 100.350085,21.5500078 L100.350085,21.6146824 C100.350085,25.6655686 97.0009322,27.8378196 91.928178,27.8378196 L81.3915678,27.8378196 L81.3915678,5.15040784 L81.3915678,5.15040784 Z" id="Fill-6" fill="#FFFFFF" sketch:type="MSShapeGroup"></path>
                    <path d="M101.840127,1.76229804 L102.038432,1.76229804 C102.270339,1.76229804 102.458178,1.68527059 102.458178,1.49827451 C102.458178,1.33329412 102.336441,1.22332549 102.071483,1.22332549 C101.961314,1.22332549 101.884195,1.23430588 101.840127,1.24528627 L101.840127,1.76229804 L101.840127,1.76229804 Z M101.82911,2.78523137 L101.409364,2.78523137 L101.409364,0.981317647 C101.575169,0.948321569 101.806525,0.926305882 102.105085,0.926305882 C102.447161,0.926305882 102.601398,0.981317647 102.734153,1.0582902 C102.833305,1.13531765 102.910424,1.27828235 102.910424,1.45429804 C102.910424,1.65227451 102.756186,1.80627451 102.535297,1.87226667 L102.535297,1.89428235 C102.711568,1.96027451 102.811271,2.09225882 102.866356,2.33426667 C102.921441,2.60921569 102.954492,2.71923922 102.998559,2.78523137 L102.546314,2.78523137 C102.491229,2.71923922 102.458178,2.55425882 102.402542,2.34524706 C102.369492,2.14727059 102.259322,2.05926275 102.027415,2.05926275 L101.82911,2.05926275 L101.82911,2.78523137 L101.82911,2.78523137 Z M100.714195,1.83927059 C100.714195,2.64221176 101.310212,3.28017255 102.127119,3.28017255 C102.921441,3.28017255 103.506441,2.64221176 103.506441,1.85030588 C103.506441,1.0473098 102.921441,0.398313725 102.116102,0.398313725 C101.310212,0.398313725 100.714195,1.0473098 100.714195,1.83927059 L100.714195,1.83927059 Z M103.969703,1.83927059 C103.969703,2.86220392 103.164364,3.6652 102.116102,3.6652 C101.078305,3.6652 100.250932,2.86220392 100.250932,1.83927059 C100.250932,0.838298039 101.078305,0.0353568627 102.116102,0.0353568627 C103.164364,0.0353568627 103.969703,0.838298039 103.969703,1.83927059 L103.969703,1.83927059 Z" id="Fill-7" fill="#FFFFFF" sketch:type="MSShapeGroup"></path>
                </g>
            </g>
        </g>
    </g>
</svg>